<?xml version="1.0" standalone="no"?>
<!DOCTYPE svg PUBLIC "-//W3C//DTD SVG 20010904//EN"
 "http://www.w3.org/TR/2001/REC-SVG-20010904/DTD/svg10.dtd">
<svg version="1.0" xmlns="http://www.w3.org/2000/svg"
 width="251.000000pt" height="251.000000pt" viewBox="0 0 251.000000 251.000000"
 preserveAspectRatio="xMidYMid meet">
<metadata>
Created by potrace 1.11, written by Peter Selinger 2001-2013
</metadata>
<g transform="translate(0.000000,251.000000) scale(0.100000,-0.100000)"
fill="#000000" stroke="none">
<path d="M52 1258 l3 -1073 348 -3 c274 -2 347 0 348 10 0 7 2 72 5 144 2 72
6 155 8 185 3 30 5 73 5 97 l1 42 118 0 118 0 2 -52 c3 -55 12 -162 16 -165 1
-1 99 -4 218 -7 126 -3 226 -10 238 -16 14 -8 20 -22 21 -48 1 -20 3 -46 4
-57 1 -11 3 -41 3 -67 l2 -48 460 0 460 0 0 220 0 220 -72 1 c-40 1 -113 3
-163 4 -49 2 -177 3 -282 4 l-193 1 0 130 0 130 128 1 c70 0 192 1 272 3 80 2
182 4 228 5 l82 1 0 585 0 585 -22 1 c-13 0 -34 2 -48 4 -14 2 -53 4 -87 6
l-63 2 -1 61 c-1 34 -2 75 -4 91 -1 17 -3 40 -4 53 l-1 22 -1075 0 -1075 0 2
-1072z"/>
</g>
</svg>
